<mxfile host="app.diagrams.net" modified="2023-03-01T07:19:59.724Z" agent="5.0 (Windows NT 10.0; Win64; x64) AppleWebKit/537.36 (KHTML, like Gecko) Chrome/110.0.0.0 Safari/537.36" etag="uOO2HlWr0PNznz2zYorC" version="20.8.23" type="github">
  <diagram name="Page-1" id="RauxOMOAXHl27VLK-T5y">
    <mxGraphModel dx="1050" dy="541" grid="1" gridSize="10" guides="1" tooltips="1" connect="1" arrows="1" fold="1" page="1" pageScale="1" pageWidth="850" pageHeight="1100" math="0" shadow="0">
      <root>
        <mxCell id="0" />
        <mxCell id="1" parent="0" />
        <mxCell id="8gVDvsxwZ4CMCQWvO_CR-10" style="edgeStyle=orthogonalEdgeStyle;rounded=0;orthogonalLoop=1;jettySize=auto;html=1;entryX=0.612;entryY=1.012;entryDx=0;entryDy=0;entryPerimeter=0;" edge="1" parent="1" source="8gVDvsxwZ4CMCQWvO_CR-1" target="8gVDvsxwZ4CMCQWvO_CR-3">
          <mxGeometry relative="1" as="geometry" />
        </mxCell>
        <mxCell id="8gVDvsxwZ4CMCQWvO_CR-1" value="&lt;font style=&quot;font-size: 16px;&quot;&gt;Product&lt;/font&gt;" style="rounded=0;whiteSpace=wrap;html=1;" vertex="1" parent="1">
          <mxGeometry x="62" y="176" width="100" height="50" as="geometry" />
        </mxCell>
        <mxCell id="8gVDvsxwZ4CMCQWvO_CR-14" style="edgeStyle=orthogonalEdgeStyle;rounded=0;orthogonalLoop=1;jettySize=auto;html=1;exitX=0.5;exitY=1;exitDx=0;exitDy=0;entryX=0.364;entryY=0.996;entryDx=0;entryDy=0;entryPerimeter=0;" edge="1" parent="1" source="8gVDvsxwZ4CMCQWvO_CR-2" target="8gVDvsxwZ4CMCQWvO_CR-3">
          <mxGeometry relative="1" as="geometry">
            <Array as="points">
              <mxPoint x="220" y="226" />
              <mxPoint x="220" y="256" />
              <mxPoint x="166" y="256" />
            </Array>
          </mxGeometry>
        </mxCell>
        <mxCell id="8gVDvsxwZ4CMCQWvO_CR-15" style="edgeStyle=orthogonalEdgeStyle;rounded=0;orthogonalLoop=1;jettySize=auto;html=1;entryX=0.5;entryY=1;entryDx=0;entryDy=0;" edge="1" parent="1" source="8gVDvsxwZ4CMCQWvO_CR-2" target="8gVDvsxwZ4CMCQWvO_CR-5">
          <mxGeometry relative="1" as="geometry">
            <Array as="points">
              <mxPoint x="262" y="256" />
              <mxPoint x="292" y="256" />
            </Array>
          </mxGeometry>
        </mxCell>
        <mxCell id="8gVDvsxwZ4CMCQWvO_CR-18" value="" style="edgeStyle=orthogonalEdgeStyle;rounded=0;orthogonalLoop=1;jettySize=auto;html=1;" edge="1" parent="1" source="8gVDvsxwZ4CMCQWvO_CR-2" target="8gVDvsxwZ4CMCQWvO_CR-7">
          <mxGeometry relative="1" as="geometry" />
        </mxCell>
        <mxCell id="8gVDvsxwZ4CMCQWvO_CR-2" value="&lt;font style=&quot;font-size: 15px;&quot;&gt;Counter&lt;/font&gt;" style="rounded=0;whiteSpace=wrap;html=1;" vertex="1" parent="1">
          <mxGeometry x="202" y="176" width="100" height="50" as="geometry" />
        </mxCell>
        <mxCell id="8gVDvsxwZ4CMCQWvO_CR-17" value="" style="edgeStyle=orthogonalEdgeStyle;rounded=0;orthogonalLoop=1;jettySize=auto;html=1;" edge="1" parent="1" source="8gVDvsxwZ4CMCQWvO_CR-3">
          <mxGeometry relative="1" as="geometry">
            <mxPoint x="152" y="376" as="targetPoint" />
          </mxGeometry>
        </mxCell>
        <mxCell id="8gVDvsxwZ4CMCQWvO_CR-3" value="&lt;span style=&quot;font-size: 20px;&quot;&gt;*&lt;/span&gt;" style="shape=trapezoid;perimeter=trapezoidPerimeter;whiteSpace=wrap;html=1;fixedSize=1;rotation=-180;" vertex="1" parent="1">
          <mxGeometry x="102" y="286" width="100" height="50" as="geometry" />
        </mxCell>
        <mxCell id="8gVDvsxwZ4CMCQWvO_CR-35" style="edgeStyle=orthogonalEdgeStyle;rounded=0;orthogonalLoop=1;jettySize=auto;html=1;fontSize=20;entryX=0.18;entryY=1;entryDx=0;entryDy=0;entryPerimeter=0;" edge="1" parent="1" target="8gVDvsxwZ4CMCQWvO_CR-1">
          <mxGeometry relative="1" as="geometry">
            <mxPoint x="152" y="416" as="sourcePoint" />
            <mxPoint x="80" y="236" as="targetPoint" />
            <Array as="points">
              <mxPoint x="152" y="466" />
              <mxPoint x="80" y="466" />
            </Array>
          </mxGeometry>
        </mxCell>
        <mxCell id="8gVDvsxwZ4CMCQWvO_CR-16" value="" style="edgeStyle=orthogonalEdgeStyle;rounded=0;orthogonalLoop=1;jettySize=auto;html=1;" edge="1" parent="1" source="8gVDvsxwZ4CMCQWvO_CR-5">
          <mxGeometry relative="1" as="geometry">
            <mxPoint x="292" y="376" as="targetPoint" />
          </mxGeometry>
        </mxCell>
        <mxCell id="8gVDvsxwZ4CMCQWvO_CR-5" value="&lt;font style=&quot;font-size: 20px;&quot;&gt;+&lt;/font&gt;" style="shape=trapezoid;perimeter=trapezoidPerimeter;whiteSpace=wrap;html=1;fixedSize=1;rotation=-180;" vertex="1" parent="1">
          <mxGeometry x="242" y="286" width="100" height="50" as="geometry" />
        </mxCell>
        <mxCell id="8gVDvsxwZ4CMCQWvO_CR-40" style="edgeStyle=orthogonalEdgeStyle;rounded=0;orthogonalLoop=1;jettySize=auto;html=1;entryX=0.32;entryY=0.988;entryDx=0;entryDy=0;entryPerimeter=0;fontSize=20;" edge="1" parent="1" target="8gVDvsxwZ4CMCQWvO_CR-2">
          <mxGeometry relative="1" as="geometry">
            <mxPoint x="292" y="416" as="sourcePoint" />
            <Array as="points">
              <mxPoint x="292" y="466" />
              <mxPoint x="234" y="466" />
            </Array>
          </mxGeometry>
        </mxCell>
        <mxCell id="8gVDvsxwZ4CMCQWvO_CR-19" value="" style="edgeStyle=orthogonalEdgeStyle;rounded=0;orthogonalLoop=1;jettySize=auto;html=1;" edge="1" parent="1" source="8gVDvsxwZ4CMCQWvO_CR-7" target="8gVDvsxwZ4CMCQWvO_CR-8">
          <mxGeometry relative="1" as="geometry" />
        </mxCell>
        <mxCell id="8gVDvsxwZ4CMCQWvO_CR-7" value="&lt;font style=&quot;font-size: 20px;&quot;&gt;&amp;gt;&lt;/font&gt;" style="ellipse;whiteSpace=wrap;html=1;aspect=fixed;" vertex="1" parent="1">
          <mxGeometry x="410" y="181" width="40" height="40" as="geometry" />
        </mxCell>
        <mxCell id="8gVDvsxwZ4CMCQWvO_CR-8" value="" style="triangle;whiteSpace=wrap;html=1;rotation=-90;" vertex="1" parent="1">
          <mxGeometry x="410" y="273.5" width="40" height="55" as="geometry" />
        </mxCell>
        <mxCell id="8gVDvsxwZ4CMCQWvO_CR-25" value="" style="edgeStyle=orthogonalEdgeStyle;rounded=0;orthogonalLoop=1;jettySize=auto;html=1;" edge="1" parent="1" source="8gVDvsxwZ4CMCQWvO_CR-20" target="8gVDvsxwZ4CMCQWvO_CR-21">
          <mxGeometry relative="1" as="geometry" />
        </mxCell>
        <mxCell id="8gVDvsxwZ4CMCQWvO_CR-20" value="&lt;font style=&quot;font-size: 20px;&quot;&gt;&amp;gt;&lt;/font&gt;" style="rhombus;whiteSpace=wrap;html=1;" vertex="1" parent="1">
          <mxGeometry x="543" y="247" width="80" height="80" as="geometry" />
        </mxCell>
        <mxCell id="8gVDvsxwZ4CMCQWvO_CR-26" value="" style="edgeStyle=orthogonalEdgeStyle;rounded=0;orthogonalLoop=1;jettySize=auto;html=1;" edge="1" parent="1" source="8gVDvsxwZ4CMCQWvO_CR-21" target="8gVDvsxwZ4CMCQWvO_CR-22">
          <mxGeometry relative="1" as="geometry" />
        </mxCell>
        <mxCell id="8gVDvsxwZ4CMCQWvO_CR-21" value="&lt;font style=&quot;font-size: 16px;&quot;&gt;c &amp;lt;-- i&lt;/font&gt;" style="rounded=0;whiteSpace=wrap;html=1;" vertex="1" parent="1">
          <mxGeometry x="673" y="262" width="100" height="50" as="geometry" />
        </mxCell>
        <mxCell id="8gVDvsxwZ4CMCQWvO_CR-43" style="edgeStyle=orthogonalEdgeStyle;rounded=0;orthogonalLoop=1;jettySize=auto;html=1;entryX=0;entryY=0.5;entryDx=0;entryDy=0;fontSize=20;" edge="1" parent="1" source="8gVDvsxwZ4CMCQWvO_CR-22" target="8gVDvsxwZ4CMCQWvO_CR-20">
          <mxGeometry relative="1" as="geometry">
            <Array as="points">
              <mxPoint x="723" y="432" />
              <mxPoint x="523" y="432" />
              <mxPoint x="523" y="287" />
            </Array>
          </mxGeometry>
        </mxCell>
        <mxCell id="8gVDvsxwZ4CMCQWvO_CR-22" value="&lt;font style=&quot;font-size: 16px;&quot;&gt;p &amp;lt;-- m&lt;/font&gt;" style="rounded=0;whiteSpace=wrap;html=1;" vertex="1" parent="1">
          <mxGeometry x="673" y="362" width="100" height="50" as="geometry" />
        </mxCell>
        <mxCell id="8gVDvsxwZ4CMCQWvO_CR-32" value="" style="endArrow=classic;html=1;rounded=0;entryX=0.5;entryY=0;entryDx=0;entryDy=0;" edge="1" parent="1" target="8gVDvsxwZ4CMCQWvO_CR-20">
          <mxGeometry width="50" height="50" relative="1" as="geometry">
            <mxPoint x="583" y="202" as="sourcePoint" />
            <mxPoint x="583" y="242" as="targetPoint" />
          </mxGeometry>
        </mxCell>
        <mxCell id="8gVDvsxwZ4CMCQWvO_CR-48" value="" style="endArrow=classic;html=1;rounded=0;fontSize=20;exitX=0.5;exitY=1;exitDx=0;exitDy=0;" edge="1" parent="1" source="8gVDvsxwZ4CMCQWvO_CR-20">
          <mxGeometry width="50" height="50" relative="1" as="geometry">
            <mxPoint x="393" y="382" as="sourcePoint" />
            <mxPoint x="583" y="372" as="targetPoint" />
          </mxGeometry>
        </mxCell>
        <mxCell id="8gVDvsxwZ4CMCQWvO_CR-49" value="&lt;font style=&quot;font-size: 16px;&quot;&gt;1&lt;/font&gt;" style="text;strokeColor=none;align=center;fillColor=none;html=1;verticalAlign=middle;whiteSpace=wrap;rounded=0;fontSize=20;" vertex="1" parent="1">
          <mxGeometry x="400" y="286" width="60" height="30" as="geometry" />
        </mxCell>
        <mxCell id="8gVDvsxwZ4CMCQWvO_CR-52" value="" style="shape=sumEllipse;perimeter=ellipsePerimeter;whiteSpace=wrap;html=1;backgroundOutline=1;fontSize=30;" vertex="1" parent="1">
          <mxGeometry x="132" y="376" width="40" height="40" as="geometry" />
        </mxCell>
        <mxCell id="8gVDvsxwZ4CMCQWvO_CR-53" value="" style="shape=sumEllipse;perimeter=ellipsePerimeter;whiteSpace=wrap;html=1;backgroundOutline=1;fontSize=30;" vertex="1" parent="1">
          <mxGeometry x="272" y="376" width="40" height="40" as="geometry" />
        </mxCell>
        <mxCell id="8gVDvsxwZ4CMCQWvO_CR-55" value="&lt;font style=&quot;font-size: 16px;&quot;&gt;c &amp;lt;-- i&lt;/font&gt;" style="text;strokeColor=none;align=center;fillColor=none;html=1;verticalAlign=middle;whiteSpace=wrap;rounded=0;fontSize=30;" vertex="1" parent="1">
          <mxGeometry x="312" y="376" width="60" height="30" as="geometry" />
        </mxCell>
        <mxCell id="8gVDvsxwZ4CMCQWvO_CR-56" value="&lt;font style=&quot;font-size: 16px;&quot;&gt;p &amp;lt;-- m&lt;/font&gt;" style="text;strokeColor=none;align=center;fillColor=none;html=1;verticalAlign=middle;whiteSpace=wrap;rounded=0;fontSize=30;" vertex="1" parent="1">
          <mxGeometry x="172" y="376" width="60" height="30" as="geometry" />
        </mxCell>
        <mxCell id="8gVDvsxwZ4CMCQWvO_CR-59" value="&lt;span style=&quot;font-size: 16px;&quot;&gt;done&lt;/span&gt;" style="text;strokeColor=none;align=center;fillColor=none;html=1;verticalAlign=middle;whiteSpace=wrap;rounded=0;fontSize=30;" vertex="1" parent="1">
          <mxGeometry x="553" y="372" width="60" height="30" as="geometry" />
        </mxCell>
        <mxCell id="8gVDvsxwZ4CMCQWvO_CR-60" value="&lt;span style=&quot;font-size: 16px;&quot;&gt;yes&lt;/span&gt;" style="text;strokeColor=none;align=center;fillColor=none;html=1;verticalAlign=middle;whiteSpace=wrap;rounded=0;fontSize=30;" vertex="1" parent="1">
          <mxGeometry x="573" y="327" width="60" height="30" as="geometry" />
        </mxCell>
        <mxCell id="8gVDvsxwZ4CMCQWvO_CR-61" value="&lt;span style=&quot;font-size: 16px;&quot;&gt;no&lt;/span&gt;" style="text;strokeColor=none;align=center;fillColor=none;html=1;verticalAlign=middle;whiteSpace=wrap;rounded=0;fontSize=30;" vertex="1" parent="1">
          <mxGeometry x="613" y="252" width="60" height="30" as="geometry" />
        </mxCell>
        <mxCell id="8gVDvsxwZ4CMCQWvO_CR-62" value="&lt;span style=&quot;font-size: 16px;&quot;&gt;start&lt;/span&gt;" style="text;strokeColor=none;align=center;fillColor=none;html=1;verticalAlign=middle;whiteSpace=wrap;rounded=0;fontSize=30;" vertex="1" parent="1">
          <mxGeometry x="553" y="172" width="60" height="30" as="geometry" />
        </mxCell>
        <mxCell id="8gVDvsxwZ4CMCQWvO_CR-64" value="&lt;font style=&quot;font-size: 20px;&quot;&gt;&lt;u&gt;Data Path&lt;/u&gt;&lt;/font&gt;" style="text;strokeColor=none;align=center;fillColor=none;html=1;verticalAlign=middle;whiteSpace=wrap;rounded=0;fontSize=16;" vertex="1" parent="1">
          <mxGeometry x="184" y="90" width="118" height="30" as="geometry" />
        </mxCell>
        <mxCell id="8gVDvsxwZ4CMCQWvO_CR-65" value="&lt;font style=&quot;font-size: 20px;&quot;&gt;&lt;u&gt;Controller&lt;/u&gt;&lt;/font&gt;" style="text;strokeColor=none;align=center;fillColor=none;html=1;verticalAlign=middle;whiteSpace=wrap;rounded=0;fontSize=16;" vertex="1" parent="1">
          <mxGeometry x="584" y="90" width="118" height="30" as="geometry" />
        </mxCell>
      </root>
    </mxGraphModel>
  </diagram>
</mxfile>
